# xmcd CD database file
# Copyright (C) 1996 Ti Kan
#
# Track frame offsets:
#	150
#	28068
#	49668
#	79881
#	109761
#	132971
#	154188
#	186977
#	210733
#	223044
#	236380
# Disc length: 3318 seconds
#
# Revision: 1
# Processed by: cddbd v1.5PL3 Copyright (c) Steve Scherf et al.
# Submitted via: CDCOPY 4.744
#
DISCID=990cf40b
DTITLE=Vari - Hot - CD1
DYEAR=1900
DGENRE=
TTITLE0=Bob Marley vs Funkstar de Luxe - Sun is shining
TTITLE1=Badar Ali Khan - Kalander (trance rmx)
TTITLE2=Badmarsh and Shri - The asian detective
TTITLE3=Sushan - Saffe
TTITLE4=Toure Kunda - Nobel
TTITLE5=Afro Cubano Chant - Cubano chant
TTITLE6=Hip Hop Essence Allstars - Cancion no 1
TTITLE7=Trilok Gurtu - Cherry town
TTITLE8=Miroslav Tadic e Mark Nauseef - Hamburg 2
TTITLE9=Sonny Sgarrock e Nicky Skopelitis - Uncle Herbie's dance
TTITLE10=The Magnetic Fields - All my little words
EXTD=
EXTT0=
EXTT1=
EXTT2=
EXTT3=
EXTT4=
EXTT5=
EXTT6=
EXTT7=
EXTT8=
EXTT9=
EXTT10=
PLAYORDER=
